<svg xmlns="http://www.w3.org/2000/svg" viewBox="0 0 77.75 68.02"><defs><style>.cls-1{fill:#1effbc;}.cls-1,.cls-2{stroke:#1f2421;stroke-linejoin:round;stroke-width:0.5px;}.cls-2{fill:#16bf8d;}</style></defs><g id="Layer_2" data-name="Layer 2"><g id="Layer_1-2" data-name="Layer 1"><path class="cls-1" d="M34.25,23.77Q25.88,18.51,17.38,13,8.67,7.38.25,1.77A29.88,29.88,0,0,1,8,.31c1.46-.07,8.55-.55,14.55,3C33.92,9.94,34.25,23.13,34.25,23.77Z"/><path class="cls-2" d="M34.25,23.77a27.69,27.69,0,0,1-20.75-2.5C2.48,15,.48,3.27.25,1.77Q8.67,7.38,17.38,13,25.87,18.51,34.25,23.77Z"/><path class="cls-2" d="M43.25,67.77h-19c1.41-3.76,2.76-7.76,4-12a166.9,166.9,0,0,0,6-32,136.66,136.66,0,0,0,5,32C40.46,60.06,41.82,64.06,43.25,67.77Z"/><path class="cls-2" d="M77.5,17.27l-43.25,6.5c1.19-1.45,11.56-13.58,27.25-12.5A30.84,30.84,0,0,1,77.5,17.27Z"/><path class="cls-1" d="M77.5,17.27a31.94,31.94,0,0,1-20,12,32.07,32.07,0,0,1-23.25-5.5Z"/></g></g></svg>